<svg width="215" height="40" viewBox="0 0 215 40" fill="none" xmlns="http://www.w3.org/2000/svg">
<path d="M62.4886 15.9091V18.6364H54.4091V15.9091H62.4886ZM56.2585 29V14.9631C56.2585 14.0142 56.4432 13.2273 56.8125 12.6023C57.1875 11.9773 57.6989 11.5085 58.3466 11.196C58.9943 10.8835 59.7301 10.7273 60.554 10.7273C61.1108 10.7273 61.6193 10.7699 62.0795 10.8551C62.5455 10.9403 62.892 11.017 63.1193 11.0852L62.4716 13.8125C62.3295 13.767 62.1534 13.7244 61.9432 13.6847C61.7386 13.6449 61.5284 13.625 61.3125 13.625C60.7784 13.625 60.4062 13.75 60.196 14C59.9858 14.2443 59.8807 14.5881 59.8807 15.0312V29H56.2585ZM67.9709 29.2472C67.1357 29.2472 66.3913 29.1023 65.7379 28.8125C65.0845 28.517 64.5675 28.0824 64.1868 27.5085C63.8118 26.929 63.6243 26.2074 63.6243 25.3438C63.6243 24.6165 63.7578 24.0057 64.0249 23.5114C64.2919 23.017 64.6555 22.6193 65.1158 22.3182C65.576 22.017 66.0987 21.7898 66.6839 21.6364C67.2749 21.483 67.8942 21.375 68.5419 21.3125C69.3033 21.233 69.9169 21.1591 70.3828 21.0909C70.8487 21.017 71.1868 20.9091 71.397 20.767C71.6072 20.625 71.7124 20.4148 71.7124 20.1364V20.0852C71.7124 19.5455 71.5419 19.1278 71.201 18.8324C70.8658 18.5369 70.3885 18.3892 69.7692 18.3892C69.1158 18.3892 68.5959 18.5341 68.2095 18.8239C67.8232 19.108 67.5675 19.4659 67.4425 19.8977L64.0845 19.625C64.255 18.8295 64.5902 18.142 65.0902 17.5625C65.5902 16.9773 66.2351 16.5284 67.0249 16.2159C67.8203 15.8977 68.7408 15.7386 69.7862 15.7386C70.5135 15.7386 71.2095 15.8239 71.8743 15.9943C72.5447 16.1648 73.1385 16.429 73.6555 16.7869C74.1783 17.1449 74.5902 17.6051 74.8913 18.1676C75.1925 18.7244 75.343 19.392 75.343 20.1705V29H71.8999V27.1847H71.7976C71.5874 27.5938 71.3061 27.9545 70.9538 28.267C70.6016 28.5739 70.1783 28.8153 69.6839 28.9915C69.1896 29.1619 68.6186 29.2472 67.9709 29.2472ZM69.0107 26.7415C69.5447 26.7415 70.0163 26.6364 70.4254 26.4261C70.8345 26.2102 71.1555 25.9205 71.3885 25.5568C71.6214 25.1932 71.7379 24.7812 71.7379 24.321V22.9318C71.6243 23.0057 71.468 23.0739 71.2692 23.1364C71.076 23.1932 70.8572 23.2472 70.6129 23.2983C70.3686 23.3437 70.1243 23.3864 69.88 23.4261C69.6357 23.4602 69.4141 23.4915 69.2152 23.5199C68.7891 23.5824 68.4169 23.6818 68.0987 23.8182C67.7805 23.9545 67.5334 24.1392 67.3572 24.3722C67.1811 24.5994 67.093 24.8835 67.093 25.2244C67.093 25.7188 67.272 26.0966 67.63 26.358C67.9936 26.6136 68.4538 26.7415 69.0107 26.7415ZM78.1598 29V15.9091H81.6797V18.1932H81.8161C82.0547 17.3807 82.4553 16.767 83.0178 16.3523C83.5803 15.9318 84.228 15.7216 84.9609 15.7216C85.1428 15.7216 85.3388 15.733 85.549 15.7557C85.7592 15.7784 85.9439 15.8097 86.103 15.8494V19.071C85.9325 19.0199 85.6967 18.9744 85.3956 18.9347C85.0945 18.8949 84.8189 18.875 84.5689 18.875C84.0348 18.875 83.5575 18.9915 83.1371 19.2244C82.7223 19.4517 82.3928 19.7699 82.1484 20.179C81.9098 20.5881 81.7905 21.0597 81.7905 21.5938V29H78.1598ZM87.9801 29V15.9091H91.6108V29H87.9801ZM89.804 14.2216C89.2642 14.2216 88.8011 14.0426 88.4148 13.6847C88.0341 13.321 87.8438 12.8864 87.8438 12.3807C87.8438 11.8807 88.0341 11.4517 88.4148 11.0938C88.8011 10.7301 89.2642 10.5483 89.804 10.5483C90.3438 10.5483 90.804 10.7301 91.1847 11.0938C91.571 11.4517 91.7642 11.8807 91.7642 12.3807C91.7642 12.8864 91.571 13.321 91.1847 13.6847C90.804 14.0426 90.3438 14.2216 89.804 14.2216ZM98.2521 29.2472C97.4169 29.2472 96.6726 29.1023 96.0192 28.8125C95.3658 28.517 94.8487 28.0824 94.468 27.5085C94.093 26.929 93.9055 26.2074 93.9055 25.3438C93.9055 24.6165 94.0391 24.0057 94.3061 23.5114C94.5732 23.017 94.9368 22.6193 95.397 22.3182C95.8572 22.017 96.38 21.7898 96.9652 21.6364C97.5561 21.483 98.1754 21.375 98.8232 21.3125C99.5845 21.233 100.198 21.1591 100.664 21.0909C101.13 21.017 101.468 20.9091 101.678 20.767C101.888 20.625 101.994 20.4148 101.994 20.1364V20.0852C101.994 19.5455 101.823 19.1278 101.482 18.8324C101.147 18.5369 100.67 18.3892 100.05 18.3892C99.397 18.3892 98.8771 18.5341 98.4908 18.8239C98.1044 19.108 97.8487 19.4659 97.7237 19.8977L94.3658 19.625C94.5362 18.8295 94.8714 18.142 95.3714 17.5625C95.8714 16.9773 96.5163 16.5284 97.3061 16.2159C98.1016 15.8977 99.022 15.7386 100.067 15.7386C100.795 15.7386 101.491 15.8239 102.156 15.9943C102.826 16.1648 103.42 16.429 103.937 16.7869C104.46 17.1449 104.871 17.6051 105.173 18.1676C105.474 18.7244 105.624 19.392 105.624 20.1705V29H102.181V27.1847H102.079C101.869 27.5938 101.587 27.9545 101.235 28.267C100.883 28.5739 100.46 28.8153 99.9652 28.9915C99.4709 29.1619 98.8999 29.2472 98.2521 29.2472ZM99.2919 26.7415C99.826 26.7415 100.298 26.6364 100.707 26.4261C101.116 26.2102 101.437 25.9205 101.67 25.5568C101.903 25.1932 102.019 24.7812 102.019 24.321V22.9318C101.906 23.0057 101.749 23.0739 101.55 23.1364C101.357 23.1932 101.138 23.2472 100.894 23.2983C100.65 23.3437 100.406 23.3864 100.161 23.4261C99.9169 23.4602 99.6953 23.4915 99.4964 23.5199C99.0703 23.5824 98.6982 23.6818 98.38 23.8182C98.0618 23.9545 97.8146 24.1392 97.6385 24.3722C97.4624 24.5994 97.3743 24.8835 97.3743 25.2244C97.3743 25.7188 97.5533 26.0966 97.9112 26.358C98.2749 26.6136 98.7351 26.7415 99.2919 26.7415ZM121.036 15.9091V18.6364H112.956V15.9091H121.036ZM114.805 29V14.9631C114.805 14.0142 114.99 13.2273 115.359 12.6023C115.734 11.9773 116.246 11.5085 116.893 11.196C117.541 10.8835 118.277 10.7273 119.101 10.7273C119.658 10.7273 120.166 10.7699 120.626 10.8551C121.092 10.9403 121.439 11.017 121.666 11.0852L121.018 13.8125C120.876 13.767 120.7 13.7244 120.49 13.6847C120.286 13.6449 120.075 13.625 119.859 13.625C119.325 13.625 118.953 13.75 118.743 14C118.533 14.2443 118.428 14.5881 118.428 15.0312V29H114.805ZM123.254 29V15.9091H126.884V29H123.254ZM125.077 14.2216C124.538 14.2216 124.075 14.0426 123.688 13.6847C123.308 13.321 123.117 12.8864 123.117 12.3807C123.117 11.8807 123.308 11.4517 123.688 11.0938C124.075 10.7301 124.538 10.5483 125.077 10.5483C125.617 10.5483 126.077 10.7301 126.458 11.0938C126.844 11.4517 127.038 11.8807 127.038 12.3807C127.038 12.8864 126.844 13.321 126.458 13.6847C126.077 14.0426 125.617 14.2216 125.077 14.2216ZM133.423 21.4318V29H129.793V15.9091H133.253V18.2188H133.406C133.696 17.4574 134.182 16.8551 134.864 16.4119C135.545 15.9631 136.372 15.7386 137.344 15.7386C138.253 15.7386 139.045 15.9375 139.722 16.3352C140.398 16.733 140.923 17.3011 141.298 18.0398C141.673 18.7727 141.861 19.6477 141.861 20.6648V29H138.23V21.3125C138.236 20.5114 138.031 19.8864 137.616 19.4375C137.202 18.983 136.631 18.7557 135.903 18.7557C135.415 18.7557 134.983 18.8608 134.608 19.071C134.239 19.2812 133.949 19.5881 133.739 19.9915C133.534 20.3892 133.429 20.8693 133.423 21.4318ZM148.455 29.2472C147.62 29.2472 146.876 29.1023 146.222 28.8125C145.569 28.517 145.052 28.0824 144.671 27.5085C144.296 26.929 144.109 26.2074 144.109 25.3438C144.109 24.6165 144.242 24.0057 144.509 23.5114C144.776 23.017 145.14 22.6193 145.6 22.3182C146.06 22.017 146.583 21.7898 147.168 21.6364C147.759 21.483 148.379 21.375 149.026 21.3125C149.788 21.233 150.401 21.1591 150.867 21.0909C151.333 21.017 151.671 20.9091 151.881 20.767C152.092 20.625 152.197 20.4148 152.197 20.1364V20.0852C152.197 19.5455 152.026 19.1278 151.685 18.8324C151.35 18.5369 150.873 18.3892 150.254 18.3892C149.6 18.3892 149.08 18.5341 148.694 18.8239C148.308 19.108 148.052 19.4659 147.927 19.8977L144.569 19.625C144.739 18.8295 145.075 18.142 145.575 17.5625C146.075 16.9773 146.719 16.5284 147.509 16.2159C148.305 15.8977 149.225 15.7386 150.271 15.7386C150.998 15.7386 151.694 15.8239 152.359 15.9943C153.029 16.1648 153.623 16.429 154.14 16.7869C154.663 17.1449 155.075 17.6051 155.376 18.1676C155.677 18.7244 155.827 19.392 155.827 20.1705V29H152.384V27.1847H152.282C152.072 27.5938 151.79 27.9545 151.438 28.267C151.086 28.5739 150.663 28.8153 150.168 28.9915C149.674 29.1619 149.103 29.2472 148.455 29.2472ZM149.495 26.7415C150.029 26.7415 150.501 26.6364 150.91 26.4261C151.319 26.2102 151.64 25.9205 151.873 25.5568C152.106 25.1932 152.222 24.7812 152.222 24.321V22.9318C152.109 23.0057 151.952 23.0739 151.754 23.1364C151.56 23.1932 151.342 23.2472 151.097 23.2983C150.853 23.3437 150.609 23.3864 150.364 23.4261C150.12 23.4602 149.898 23.4915 149.7 23.5199C149.273 23.5824 148.901 23.6818 148.583 23.8182C148.265 23.9545 148.018 24.1392 147.842 24.3722C147.665 24.5994 147.577 24.8835 147.577 25.2244C147.577 25.7188 147.756 26.0966 148.114 26.358C148.478 26.6136 148.938 26.7415 149.495 26.7415ZM162.275 21.4318V29H158.644V15.9091H162.104V18.2188H162.258C162.548 17.4574 163.033 16.8551 163.715 16.4119C164.397 15.9631 165.224 15.7386 166.195 15.7386C167.104 15.7386 167.897 15.9375 168.573 16.3352C169.249 16.733 169.775 17.3011 170.15 18.0398C170.525 18.7727 170.712 19.6477 170.712 20.6648V29H167.082V21.3125C167.087 20.5114 166.883 19.8864 166.468 19.4375C166.053 18.983 165.482 18.7557 164.755 18.7557C164.266 18.7557 163.835 18.8608 163.46 19.071C163.09 19.2812 162.8 19.5881 162.59 19.9915C162.386 20.3892 162.281 20.8693 162.275 21.4318ZM179.489 29.2557C178.148 29.2557 176.994 28.9716 176.028 28.4034C175.068 27.8295 174.33 27.0341 173.812 26.017C173.301 25 173.045 23.8295 173.045 22.5057C173.045 21.1648 173.304 19.9886 173.821 18.9773C174.344 17.9602 175.085 17.1676 176.045 16.5994C177.006 16.0256 178.148 15.7386 179.472 15.7386C180.614 15.7386 181.614 15.946 182.472 16.3608C183.33 16.7756 184.009 17.358 184.509 18.108C185.009 18.858 185.284 19.7386 185.335 20.75H181.909C181.813 20.0966 181.557 19.571 181.142 19.1733C180.733 18.7699 180.196 18.5682 179.531 18.5682C178.969 18.5682 178.477 18.7216 178.057 19.0284C177.642 19.3295 177.318 19.7699 177.085 20.3494C176.852 20.929 176.736 21.6307 176.736 22.4545C176.736 23.2898 176.849 24 177.077 24.5852C177.31 25.1705 177.636 25.6165 178.057 25.9233C178.477 26.2301 178.969 26.3835 179.531 26.3835C179.946 26.3835 180.318 26.2983 180.648 26.1278C180.983 25.9574 181.259 25.7102 181.474 25.3864C181.696 25.0568 181.841 24.6619 181.909 24.2017H185.335C185.278 25.2017 185.006 26.0824 184.517 26.8438C184.034 27.5994 183.366 28.1903 182.514 28.6165C181.662 29.0426 180.653 29.2557 179.489 29.2557ZM193.626 29.2557C192.279 29.2557 191.12 28.983 190.148 28.4375C189.183 27.8864 188.438 27.108 187.915 26.1023C187.393 25.0909 187.131 23.8949 187.131 22.5142C187.131 21.1676 187.393 19.9858 187.915 18.9688C188.438 17.9517 189.174 17.1591 190.123 16.5909C191.077 16.0227 192.197 15.7386 193.481 15.7386C194.344 15.7386 195.148 15.8778 195.893 16.1562C196.643 16.429 197.296 16.8409 197.853 17.392C198.415 17.9432 198.853 18.6364 199.165 19.4716C199.478 20.3011 199.634 21.2727 199.634 22.3864V23.3835H188.58V21.1335H196.217C196.217 20.6108 196.103 20.1477 195.876 19.7443C195.648 19.3409 195.333 19.0256 194.93 18.7983C194.532 18.5653 194.069 18.4489 193.54 18.4489C192.989 18.4489 192.501 18.5767 192.075 18.8324C191.654 19.0824 191.325 19.4205 191.086 19.8466C190.847 20.267 190.725 20.7358 190.719 21.2528V23.392C190.719 24.0398 190.839 24.5994 191.077 25.071C191.322 25.5426 191.665 25.9062 192.109 26.1619C192.552 26.4176 193.077 26.5455 193.685 26.5455C194.089 26.5455 194.458 26.4886 194.793 26.375C195.129 26.2614 195.415 26.0909 195.654 25.8636C195.893 25.6364 196.075 25.358 196.2 25.0284L199.558 25.25C199.387 26.0568 199.038 26.7614 198.509 27.3636C197.987 27.9602 197.31 28.4261 196.481 28.7614C195.657 29.0909 194.705 29.2557 193.626 29.2557ZM212.896 19.642L209.572 19.8466C209.515 19.5625 209.393 19.3068 209.205 19.0795C209.018 18.8466 208.771 18.6619 208.464 18.5256C208.163 18.3835 207.802 18.3125 207.381 18.3125C206.819 18.3125 206.344 18.4318 205.958 18.6705C205.572 18.9034 205.379 19.2159 205.379 19.608C205.379 19.9205 205.504 20.1847 205.754 20.4006C206.004 20.6165 206.433 20.7898 207.04 20.9205L209.41 21.3977C210.683 21.6591 211.631 22.0795 212.256 22.6591C212.881 23.2386 213.194 24 213.194 24.9432C213.194 25.8011 212.941 26.554 212.435 27.2017C211.935 27.8494 211.248 28.3551 210.373 28.7188C209.504 29.0767 208.501 29.2557 207.364 29.2557C205.631 29.2557 204.251 28.8949 203.222 28.1733C202.2 27.446 201.6 26.4574 201.424 25.2074L204.995 25.0199C205.103 25.5483 205.364 25.9517 205.779 26.2301C206.194 26.5028 206.725 26.6392 207.373 26.6392C208.009 26.6392 208.521 26.517 208.907 26.2727C209.299 26.0227 209.498 25.7017 209.504 25.3097C209.498 24.9801 209.359 24.7102 209.086 24.5C208.813 24.2841 208.393 24.1193 207.825 24.0057L205.558 23.554C204.279 23.2983 203.327 22.8551 202.702 22.2244C202.083 21.5937 201.773 20.7898 201.773 19.8125C201.773 18.9716 202.001 18.2472 202.455 17.6392C202.915 17.0312 203.56 16.5625 204.39 16.233C205.225 15.9034 206.202 15.7386 207.322 15.7386C208.975 15.7386 210.276 16.0881 211.225 16.7869C212.18 17.4858 212.737 18.4375 212.896 19.642Z" fill="white"/>
<path d="M34.1422 5.85781C30.3647 2.08031 25.3422 0 20 0C14.6578 0 9.63531 2.08031 5.85781 5.85781C2.08031 9.63531 0 14.6578 0 20C0 25.3422 2.08039 30.3646 5.85781 34.1422C9.63523 37.9198 14.6578 40 20 40C25.3422 40 30.3647 37.9197 34.1422 34.1422C37.9197 30.3647 40 25.3422 40 20C40 14.6578 37.9196 9.63539 34.1422 5.85781Z" fill="#33CC95"/>
<g clip-path="url(#clip0_35212_417)">
<path d="M20.5714 8V33.1429" stroke="white" stroke-width="2" stroke-linecap="round" stroke-linejoin="round"/>
<path d="M26.2857 12.5714H17.7143C16.6534 12.5714 15.636 12.9929 14.8859 13.743C14.1357 14.4931 13.7143 15.5106 13.7143 16.5714C13.7143 17.6323 14.1357 18.6497 14.8859 19.3999C15.636 20.15 16.6534 20.5714 17.7143 20.5714H23.4286C24.4894 20.5714 25.5069 20.9929 26.257 21.743C27.0072 22.4932 27.4286 23.5106 27.4286 24.5714C27.4286 25.6323 27.0072 26.6497 26.257 27.3999C25.5069 28.15 24.4894 28.5714 23.4286 28.5714H13.7143" stroke="white" stroke-width="2" stroke-linecap="round" stroke-linejoin="round"/>
</g>
<defs>
<clipPath id="clip0_35212_417">
<rect width="27.4286" height="27.4286" fill="white" transform="translate(6.85715 6.85714)"/>
</clipPath>
</defs>
</svg>
